<svg width="94" height="26" viewBox="0 0 94 26" fill="none" xmlns="http://www.w3.org/2000/svg">
<path id="nom" d="M4.432 25.432C3.248 25.432 2.336 25.112 1.696 24.472C1.088 23.832 0.784 22.92 0.784 21.736V4.696C0.784 3.512 1.088 2.616 1.696 2.008C2.336 1.368 3.216 1.048 4.336 1.048C5.488 1.048 6.368 1.368 6.976 2.008C7.584 2.616 7.888 3.512 7.888 4.696V7.432L7.36 5.848C8.096 4.28 9.184 3.08 10.624 2.248C12.096 1.384 13.76 0.951998 15.616 0.951998C17.504 0.951998 19.056 1.32 20.272 2.056C21.488 2.76 22.4 3.848 23.008 5.32C23.616 6.76 23.92 8.6 23.92 10.84V21.736C23.92 22.92 23.6 23.832 22.96 24.472C22.352 25.112 21.456 25.432 20.272 25.432C19.12 25.432 18.224 25.112 17.584 24.472C16.976 23.832 16.672 22.92 16.672 21.736V11.176C16.672 9.544 16.368 8.376 15.76 7.672C15.184 6.936 14.288 6.568 13.072 6.568C11.536 6.568 10.304 7.048 9.376 8.008C8.48 8.968 8.032 10.248 8.032 11.848V21.736C8.032 24.2 6.832 25.432 4.432 25.432ZM40.1789 25.528C37.6509 25.528 35.4429 25.032 33.5549 24.04C31.6989 23.048 30.2589 21.624 29.2349 19.768C28.2109 17.912 27.6989 15.72 27.6989 13.192C27.6989 11.304 27.9869 9.608 28.5629 8.104C29.1389 6.6 29.9709 5.32 31.0589 4.264C32.1789 3.176 33.5069 2.36 35.0429 1.816C36.5789 1.24 38.2909 0.951998 40.1789 0.951998C42.7069 0.951998 44.8989 1.448 46.7549 2.44C48.6429 3.432 50.0989 4.84 51.1229 6.664C52.1789 8.488 52.7069 10.664 52.7069 13.192C52.7069 15.112 52.4029 16.824 51.7949 18.328C51.2189 19.832 50.3869 21.128 49.2989 22.216C48.2109 23.304 46.8829 24.136 45.3149 24.712C43.7789 25.256 42.0669 25.528 40.1789 25.528ZM40.1789 20.104C41.2349 20.104 42.1469 19.848 42.9149 19.336C43.6829 18.824 44.2909 18.072 44.7389 17.08C45.1869 16.056 45.4109 14.76 45.4109 13.192C45.4109 10.856 44.9309 9.144 43.9709 8.056C43.0109 6.936 41.7469 6.376 40.1789 6.376C39.1549 6.376 38.2429 6.616 37.4429 7.096C36.6749 7.576 36.0669 8.328 35.6189 9.352C35.2029 10.344 34.9949 11.624 34.9949 13.192C34.9949 15.528 35.4749 17.272 36.4349 18.424C37.3949 19.544 38.6429 20.104 40.1789 20.104ZM60.3805 25.432C59.1965 25.432 58.2845 25.112 57.6445 24.472C57.0365 23.832 56.7325 22.92 56.7325 21.736V4.696C56.7325 3.512 57.0365 2.616 57.6445 2.008C58.2845 1.368 59.1645 1.048 60.2845 1.048C61.4365 1.048 62.3165 1.368 62.9245 2.008C63.5325 2.616 63.8365 3.512 63.8365 4.696V7.768L63.3085 5.848C63.9485 4.376 64.9405 3.192 66.2845 2.296C67.6285 1.4 69.2125 0.951998 71.0365 0.951998C72.8605 0.951998 74.3805 1.384 75.5965 2.248C76.8125 3.112 77.6765 4.44 78.1885 6.232H77.5165C78.2205 4.6 79.2925 3.32 80.7325 2.392C82.2045 1.432 83.8845 0.951998 85.7725 0.951998C87.5965 0.951998 89.0845 1.32 90.2365 2.056C91.4205 2.76 92.3005 3.848 92.8765 5.32C93.4525 6.76 93.7405 8.6 93.7405 10.84V21.736C93.7405 22.92 93.4205 23.832 92.7805 24.472C92.1725 25.112 91.2925 25.432 90.1405 25.432C88.9565 25.432 88.0445 25.112 87.4045 24.472C86.7965 23.832 86.4925 22.92 86.4925 21.736V11.08C86.4925 9.512 86.2365 8.376 85.7245 7.672C85.2445 6.936 84.4125 6.568 83.2285 6.568C81.8525 6.568 80.7805 7.048 80.0125 8.008C79.2445 8.968 78.8605 10.328 78.8605 12.088V21.736C78.8605 22.92 78.5405 23.832 77.9005 24.472C77.2925 25.112 76.4125 25.432 75.2605 25.432C74.1085 25.432 73.2125 25.112 72.5725 24.472C71.9325 23.832 71.6125 22.92 71.6125 21.736V11.08C71.6125 9.512 71.3565 8.376 70.8445 7.672C70.3645 6.936 69.5325 6.568 68.3485 6.568C66.9725 6.568 65.9005 7.048 65.1325 8.008C64.3645 8.968 63.9805 10.328 63.9805 12.088V21.736C63.9805 24.2 62.7805 25.432 60.3805 25.432Z" fill="white"/>
</svg>
