<svg width="176" height="521" viewBox="0 0 176 521" fill="none" xmlns="http://www.w3.org/2000/svg">
<g id="Vector">
<path d="M0 13C0 5.82029 5.8203 0 13 0H163C170.18 0 176 5.8203 176 13V508C176 515.18 170.18 521 163 521H13C5.8203 521 0 515.18 0 508V13Z" fill="#FFBBD8"/>
<path d="M44.432 65.432C43.248 65.432 42.336 65.112 41.696 64.472C41.088 63.832 40.784 62.92 40.784 61.736V44.696C40.784 43.512 41.088 42.616 41.696 42.008C42.336 41.368 43.216 41.048 44.336 41.048C45.488 41.048 46.368 41.368 46.976 42.008C47.584 42.616 47.888 43.512 47.888 44.696V47.432L47.36 45.848C48.096 44.28 49.184 43.08 50.624 42.248C52.096 41.384 53.76 40.952 55.616 40.952C57.504 40.952 59.056 41.32 60.272 42.056C61.488 42.76 62.4 43.848 63.008 45.32C63.616 46.76 63.92 48.6 63.92 50.84V61.736C63.92 62.92 63.6 63.832 62.96 64.472C62.352 65.112 61.456 65.432 60.272 65.432C59.12 65.432 58.224 65.112 57.584 64.472C56.976 63.832 56.672 62.92 56.672 61.736V51.176C56.672 49.544 56.368 48.376 55.76 47.672C55.184 46.936 54.288 46.568 53.072 46.568C51.536 46.568 50.304 47.048 49.376 48.008C48.48 48.968 48.032 50.248 48.032 51.848V61.736C48.032 64.2 46.832 65.432 44.432 65.432Z" fill="white"/>
<path d="M80.1789 65.528C77.6509 65.528 75.4429 65.032 73.5549 64.04C71.6989 63.048 70.2589 61.624 69.2349 59.768C68.2109 57.912 67.6989 55.72 67.6989 53.192C67.6989 51.304 67.9869 49.608 68.5629 48.104C69.1389 46.6 69.9709 45.32 71.0589 44.264C72.1789 43.176 73.5069 42.36 75.0429 41.816C76.5789 41.24 78.2909 40.952 80.1789 40.952C82.7069 40.952 84.8989 41.448 86.7549 42.44C88.6429 43.432 90.0989 44.84 91.1229 46.664C92.1789 48.488 92.7069 50.664 92.7069 53.192C92.7069 55.112 92.4029 56.824 91.7949 58.328C91.2189 59.832 90.3869 61.128 89.2989 62.216C88.2109 63.304 86.8829 64.136 85.3149 64.712C83.7789 65.256 82.0669 65.528 80.1789 65.528ZM80.1789 60.104C81.2349 60.104 82.1469 59.848 82.9149 59.336C83.6829 58.824 84.2909 58.072 84.7389 57.08C85.1869 56.056 85.4109 54.76 85.4109 53.192C85.4109 50.856 84.9309 49.144 83.9709 48.056C83.0109 46.936 81.7469 46.376 80.1789 46.376C79.1549 46.376 78.2429 46.616 77.4429 47.096C76.6749 47.576 76.0669 48.328 75.6189 49.352C75.2029 50.344 74.9949 51.624 74.9949 53.192C74.9949 55.528 75.4749 57.272 76.4349 58.424C77.3949 59.544 78.6429 60.104 80.1789 60.104Z" fill="white"/>
<path d="M100.381 65.432C99.1965 65.432 98.2845 65.112 97.6445 64.472C97.0365 63.832 96.7325 62.92 96.7325 61.736V44.696C96.7325 43.512 97.0365 42.616 97.6445 42.008C98.2845 41.368 99.1645 41.048 100.285 41.048C101.437 41.048 102.316 41.368 102.924 42.008C103.532 42.616 103.837 43.512 103.837 44.696V47.768L103.309 45.848C103.949 44.376 104.941 43.192 106.285 42.296C107.629 41.4 109.212 40.952 111.036 40.952C112.86 40.952 114.381 41.384 115.597 42.248C116.813 43.112 117.676 44.44 118.188 46.232H117.517C118.221 44.6 119.292 43.32 120.732 42.392C122.204 41.432 123.884 40.952 125.772 40.952C127.597 40.952 129.084 41.32 130.236 42.056C131.42 42.76 132.3 43.848 132.876 45.32C133.452 46.76 133.741 48.6 133.741 50.84V61.736C133.741 62.92 133.421 63.832 132.781 64.472C132.173 65.112 131.293 65.432 130.141 65.432C128.957 65.432 128.045 65.112 127.405 64.472C126.797 63.832 126.493 62.92 126.493 61.736V51.08C126.493 49.512 126.237 48.376 125.725 47.672C125.245 46.936 124.413 46.568 123.229 46.568C121.852 46.568 120.781 47.048 120.013 48.008C119.245 48.968 118.861 50.328 118.861 52.088V61.736C118.861 62.92 118.541 63.832 117.901 64.472C117.293 65.112 116.412 65.432 115.26 65.432C114.108 65.432 113.213 65.112 112.573 64.472C111.933 63.832 111.613 62.92 111.613 61.736V51.08C111.613 49.512 111.356 48.376 110.844 47.672C110.364 46.936 109.533 46.568 108.349 46.568C106.973 46.568 105.9 47.048 105.132 48.008C104.364 48.968 103.98 50.328 103.98 52.088V61.736C103.98 64.2 102.781 65.432 100.381 65.432Z" fill="white"/>
</g>
</svg>
